Supermodel Vicki Lynn, whose face is seen everywhere, is murdered, and ace homicide cop Ed Cornell cuts his vacation short to take the case personally. In flashback we see how Vicki rose from ambitious waitress to big black headlines, courtesy of clever publicity man Steve Christopher. Now Cornell seems determined to get Christopher convicted in what begins to seem like a bizarre personal vendetta.


Jeanne Crain                 Jill Lynn
Jean Peters                  Vicki Lynn
Elliott Reid                 Steve Christopher
Richard Boone                Lt. Ed Cornell
Max Showalter                Larry  Evans
Alexander D’Arcy             Robin Ray
Carl Betz                    Detective McDonald
Aaron Spelling               Harry Williams


  Video #0
      ID : 0
      Format : AVC
      Format/Info : Advanced Video Codec
      Codec ID : H264
      Duration : 1h 25mn
      Bit rate : 1 178 Kbps
      Width : 720 pixels
      Height : 480 pixels
      Display aspect ratio : 1.500
      Frame rate : 29.970 fps
      Standard : NTSC
      Resolution : 24 bits
      Bits/(Pixel*Frame) : 0.114
      Stream size : 719 MiB (89%)
   Audio #1
      ID : 1
      Format : MPEG Audio
      Format version : Version 1
      Format profile : Layer 3
      Codec ID : 55
      Codec ID/Hint : MP3
      Duration : 1h 25mn
      Bit rate mode : Constant
      Bit rate : 128 Kbps
      Channel(s) : 2 channels
      Sampling rate : 48.0 KHz
      Resolution : 16 bits
      Stream size : 78.2 MiB (10%)
      Alignment : Aligned on interleaves
      Interleave, duration : 24 ms (0.72 video frame)
      Interleave, preload duration : 24 ms
